<svg xmlns="http://www.w3.org/2000/svg" viewBox="0 0 1200 675" role="img" aria-labelledby="title description">
  <title id="title">Synthetic forecasting decision dashboard</title>
  <desc id="description">An illustrative dashboard with fictional brands, planning dimensions, quality assurance, and approved release status.</desc>
  <rect width="1200" height="675" fill="#0f172a"/>
  <rect x="34" y="30" width="1132" height="615" rx="18" fill="#f8fafc"/>
  <rect x="34" y="30" width="1132" height="76" rx="18" fill="#172554"/>
  <rect x="34" y="88" width="1132" height="18" fill="#172554"/>
  <text x="72" y="76" fill="#ffffff" font-family="Arial, sans-serif" font-size="27" font-weight="700">Forecast Decision Workspace</text>
  <text x="938" y="75" fill="#bfdbfe" font-family="Arial, sans-serif" font-size="16">SYNTHETIC DEMO</text>
  <rect x="72" y="136" width="720" height="232" rx="12" fill="#ffffff" stroke="#cbd5e1"/>
  <text x="98" y="170" fill="#0f172a" font-family="Arial, sans-serif" font-size="20" font-weight="700">Synthetic Revenue Outlook</text>
  <text x="98" y="198" fill="#64748b" font-family="Arial, sans-serif" font-size="14">Actual / Nowcast / Forecast planning context</text>
  <line x1="110" y1="325" x2="750" y2="325" stroke="#cbd5e1" stroke-width="2"/>
  <line x1="110" y1="230" x2="110" y2="325" stroke="#cbd5e1" stroke-width="2"/>
  <polyline points="125,298 248,274 372,286" fill="none" stroke="#64748b" stroke-width="4"/>
  <polyline points="372,286 495,236 618,218 738,190" fill="none" stroke="#2563eb" stroke-width="4" stroke-dasharray="10 8"/>
  <circle cx="125" cy="298" r="6" fill="#64748b"/><circle cx="248" cy="274" r="6" fill="#64748b"/><circle cx="372" cy="286" r="7" fill="#f59e0b"/><circle cx="495" cy="236" r="6" fill="#2563eb"/><circle cx="618" cy="218" r="6" fill="#2563eb"/><circle cx="738" cy="190" r="6" fill="#2563eb"/>
  <text x="111" y="350" fill="#64748b" font-family="Arial, sans-serif" font-size="13">Actual</text><text x="334" y="350" fill="#b45309" font-family="Arial, sans-serif" font-size="13">Nowcast</text><text x="610" y="350" fill="#1d4ed8" font-family="Arial, sans-serif" font-size="13">Forecast</text>
  <rect x="822" y="136" width="300" height="232" rx="12" fill="#ffffff" stroke="#cbd5e1"/>
  <text x="848" y="170" fill="#0f172a" font-family="Arial, sans-serif" font-size="20" font-weight="700">Release Status</text>
  <rect x="848" y="197" width="248" height="42" rx="9" fill="#dcfce7"/><circle cx="871" cy="218" r="7" fill="#16a34a"/><text x="890" y="224" fill="#166534" font-family="Arial, sans-serif" font-size="16" font-weight="700">QA Passed</text>
  <rect x="848" y="253" width="248" height="42" rx="9" fill="#dbeafe"/><circle cx="871" cy="274" r="7" fill="#2563eb"/><text x="890" y="280" fill="#1e3a8a" font-family="Arial, sans-serif" font-size="16" font-weight="700">Approved Run</text>
  <text x="848" y="332" fill="#64748b" font-family="Arial, sans-serif" font-size="14">One governed source for delivery</text>
  <rect x="72" y="398" width="1050" height="202" rx="12" fill="#ffffff" stroke="#cbd5e1"/>
  <text x="98" y="434" fill="#0f172a" font-family="Arial, sans-serif" font-size="20" font-weight="700">Planning Views</text>
  <g font-family="Arial, sans-serif">
    <rect x="98" y="462" width="190" height="104" rx="10" fill="#eff6ff"/><text x="120" y="493" fill="#1e3a8a" font-size="16" font-weight="700">Brand A</text><text x="120" y="523" fill="#475569" font-size="14">Model Planning</text><text x="120" y="546" fill="#475569" font-size="14">PLC Planning</text>
    <rect x="312" y="462" width="190" height="104" rx="10" fill="#f0fdf4"/><text x="334" y="493" fill="#166534" font-size="16" font-weight="700">Brand B</text><text x="334" y="523" fill="#475569" font-size="14">Model Planning</text><text x="334" y="546" fill="#475569" font-size="14">PLC Planning</text>
    <rect x="526" y="462" width="190" height="104" rx="10" fill="#fff7ed"/><text x="548" y="493" fill="#9a3412" font-size="16" font-weight="700">Brand C</text><text x="548" y="523" fill="#475569" font-size="14">Model Planning</text><text x="548" y="546" fill="#475569" font-size="14">PLC Planning</text>
    <rect x="740" y="462" width="356" height="104" rx="10" fill="#f8fafc" stroke="#cbd5e1"/><text x="763" y="493" fill="#0f172a" font-size="16" font-weight="700">Governed reconciliation</text><text x="763" y="523" fill="#475569" font-size="14">Brand control total → planning detail</text><text x="763" y="546" fill="#475569" font-size="14">Synthetic labels only</text>
  </g>
</svg>
